<svg width="120" height="42" viewBox="0 0 120 42" fill="none" xmlns="http://www.w3.org/2000/svg">
<path d="M110.443 0.903809H9.562C9.194 0.903809 8.831 0.903809 8.464 0.90585C8.157 0.907891 7.852 0.914014 7.542 0.919117C6.874 0.935447 6.199 0.977291 5.532 1.09874C4.53299 1.26491 3.58619 1.66826 2.76791 2.2763C1.94963 2.88434 1.28275 3.68006 0.821 4.59934C0.516857 5.21123 0.305772 5.86681 0.195 6.54355C0.075 7.22122 0.032 7.90603 0.015 8.5888C0.006 8.90314 0.005 9.21748 0 9.52978V33.1451C0.005 33.4614 0.006 33.7686 0.015 34.085C0.032 34.7698 0.075 35.4546 0.195 36.1303C0.312 36.8151 0.509 37.457 0.821 38.0765C1.12575 38.6877 1.52523 39.2446 2.004 39.7258C2.4781 40.2131 3.02572 40.6197 3.626 40.9301C4.238 41.2485 4.862 41.4506 5.532 41.5751C6.199 41.6965 6.874 41.7363 7.542 41.7547C7.852 41.7618 8.157 41.7659 8.464 41.7659C8.831 41.768 9.194 41.768 9.562 41.768H110.443C110.805 41.768 111.17 41.768 111.53 41.7659C111.837 41.7659 112.15 41.7618 112.456 41.7547C113.128 41.7363 113.802 41.6965 114.461 41.5751C115.127 41.4575 115.772 41.2402 116.375 40.9301C116.975 40.6192 117.523 40.2127 117.997 39.7258C118.474 39.2461 118.872 38.6848 119.181 38.0765C119.484 37.464 119.693 36.8076 119.801 36.1303C119.926 35.4546 119.964 34.7698 119.989 34.085C119.992 33.7686 119.992 33.4614 119.992 33.1451C120 32.7725 120 32.4041 120 32.0265V10.6453C120 10.2717 120 9.90025 119.992 9.52978C119.992 9.21748 119.992 8.90314 119.989 8.5888C119.964 7.90501 119.926 7.22122 119.801 6.54355C119.693 5.86733 119.484 5.21202 119.181 4.60036C118.561 3.37129 117.58 2.37098 116.375 1.73967C115.771 1.43041 115.126 1.21408 114.46 1.09772C113.8 0.97627 113.127 0.934426 112.455 0.918097C112.149 0.912994 111.836 0.90687 111.529 0.904829C111.17 0.903809 110.805 0.903809 110.443 0.903809Z" fill="#A9AAA9"/>
<path d="M8.469 40.8739C8.163 40.8739 7.865 40.8699 7.562 40.8637C7.001 40.8474 6.336 40.8147 5.687 40.6964C5.10943 40.5949 4.54993 40.4061 4.027 40.1361C3.50788 39.8695 3.03443 39.519 2.625 39.0981C2.20976 38.6827 1.86386 38.2007 1.601 37.6714C1.33628 37.1385 1.15283 36.5676 1.057 35.9782C0.935 35.2914 0.904 34.5943 0.89 34.0626C0.883178 33.752 0.878178 33.4414 0.875 33.1308V9.52979C0.875 9.52979 0.885 8.82457 0.89 8.61739C0.904 8.08158 0.935 7.38452 1.056 6.70482C1.15125 6.11356 1.33507 5.54077 1.601 5.00657C1.86198 4.47699 2.20583 3.99438 2.619 3.57775C3.44971 2.72831 4.52202 2.16826 5.683 1.97747C6.359 1.855 7.043 1.82337 7.564 1.8101L8.47 1.79785H111.526L112.442 1.81112C112.956 1.82337 113.642 1.855 114.306 1.97645C114.889 2.07776 115.454 2.26657 115.982 2.53675C116.496 2.80517 116.967 3.15523 117.377 3.57469C117.791 3.99446 118.138 4.4784 118.404 5.00861C118.665 5.53927 118.846 6.10694 118.941 6.69257C119.056 7.33758 119.092 7.99891 119.115 8.62147C119.118 8.9103 119.118 9.22157 119.118 9.52979C119.127 9.91353 119.127 10.2779 119.127 10.6463V32.0275C119.127 32.398 119.127 32.7603 119.117 33.1257C119.117 33.4574 119.117 33.7615 119.114 34.0748C119.092 34.677 119.056 35.3383 118.942 35.968C118.848 36.5617 118.666 37.1373 118.401 37.6744C118.131 38.2051 117.787 38.6848 117.383 39.09C116.968 39.5176 116.497 39.8656 115.98 40.134C115.453 40.4058 114.888 40.5951 114.306 40.6953C113.664 40.8147 112.999 40.8484 112.432 40.8627C112.139 40.8699 111.83 40.8739 111.532 40.8739L110.444 40.876L8.47 40.8739" fill="black"/>
<path d="M24.839 21.6431C24.813 18.8334 27.097 17.4648 27.202 17.4005C25.909 15.4798 23.902 15.2175 23.199 15.1971C21.515 15.0165 19.883 16.2238 19.024 16.2238C18.15 16.2238 16.829 15.2144 15.406 15.2451C13.575 15.2736 11.86 16.3544 10.921 18.0313C8.98101 21.4523 10.428 26.4796 12.285 29.2444C13.215 30.5987 14.301 32.1122 15.723 32.0571C17.113 31.999 17.633 31.1539 19.313 31.1539C20.976 31.1539 21.463 32.0571 22.913 32.0235C24.405 31.999 25.346 30.663 26.243 29.2965C27.317 27.7452 27.749 26.2143 27.766 26.1377C27.731 26.1255 24.866 25.0131 24.839 21.6431ZM22.099 13.3784C22.847 12.4252 23.359 11.1291 23.217 9.8125C22.134 9.86149 20.78 10.5749 20 11.5077C19.31 12.3293 18.694 13.6754 18.853 14.942C20.069 15.0338 21.319 14.3163 22.099 13.3784ZM42.42 28.63H37.674L36.534 32.0592H34.524L39.02 19.3733H41.11L45.605 32.0592H43.56L42.42 28.63Z" fill="#FFFFFE"/>
<path d="M38.166 27.0482H41.928L40.073 21.4829H40.023L38.166 27.0482Z" fill="black"/>
<path d="M55.315 27.4349C55.315 30.3088 53.805 32.1561 51.525 32.1561C50.232 32.1561 49.205 31.5662 48.669 30.5375H48.626V35.1178H46.762V22.8096H48.566V24.3476H48.6C49.119 23.3556 50.224 22.7126 51.491 22.7126C53.796 22.7126 55.315 24.5681 55.315 27.4349Z" fill="#FFFFFE"/>
<path d="M53.4 27.4349C53.4 25.5621 52.449 24.3313 51 24.3313C49.576 24.3313 48.618 25.5876 48.618 27.4349C48.618 29.2985 49.576 30.5467 51 30.5467C52.449 30.5467 53.4 29.324 53.4 27.4349Z" fill="black"/>
<path d="M65.307 27.4349C65.307 30.3088 63.797 32.1561 61.518 32.1561C60.225 32.1561 59.198 31.5662 58.662 30.5375H58.619V35.1178H56.755V22.8096H58.559V24.3476H58.593C59.112 23.3556 60.216 22.7126 61.484 22.7126C63.789 22.7126 65.307 24.5681 65.307 27.4349Z" fill="#FFFFFE"/>
<path d="M63.391 27.4349C63.391 25.5621 62.441 24.3313 60.993 24.3313C59.569 24.3313 58.611 25.5876 58.611 27.4349C58.611 29.2985 59.569 30.5467 60.993 30.5467C62.442 30.5467 63.391 29.324 63.391 27.4349Z" fill="black"/>
<path d="M71.912 28.524C72.05 29.7823 73.25 30.608 74.889 30.608C76.46 30.608 77.59 29.7823 77.59 28.6485C77.59 27.6626 76.908 27.0737 75.295 26.6696L73.68 26.2736C71.394 25.7102 70.332 24.6213 70.332 22.8526C70.332 20.6645 72.205 19.1611 74.864 19.1611C77.495 19.1611 79.299 20.6645 79.359 22.8526H77.478C77.366 21.5871 76.338 20.8226 74.838 20.8226C73.335 20.8226 72.308 21.5962 72.308 22.7209C72.308 23.619 72.964 24.1467 74.57 24.5508L75.942 24.8927C78.497 25.5092 79.559 26.5542 79.559 28.4107C79.559 30.7835 77.703 32.2705 74.751 32.2705C71.99 32.2705 70.124 30.8182 70.004 28.524H71.912ZM83.58 20.6216V22.8087H85.307V24.313H83.58V29.4119C83.58 30.2049 83.926 30.5733 84.685 30.5733C84.875 30.5733 85.177 30.5468 85.298 30.5294V32.0235C85.091 32.0776 84.678 32.1123 84.263 32.1123C82.425 32.1123 81.708 31.4081 81.708 29.615V24.313H80.388V22.8087H81.708V20.6216H83.58ZM86.307 27.435C86.307 24.5243 87.989 22.6954 90.613 22.6954C93.245 22.6954 94.92 24.5243 94.92 27.435C94.92 30.3528 93.254 32.1736 90.613 32.1736C87.973 32.1736 86.307 30.3528 86.307 27.435Z" fill="#FFFFFE"/>
<path d="M93.02 27.4348C93.02 25.4385 92.123 24.2598 90.613 24.2598C89.103 24.2598 88.206 25.4467 88.206 27.4348C88.206 29.4392 89.102 30.6088 90.613 30.6088C92.123 30.6088 93.02 29.4392 93.02 27.4348Z" fill="black"/>
<path d="M96.456 22.8086H98.234V24.3834H98.277C98.562 23.3373 99.39 22.7127 100.46 22.7127C100.728 22.7127 100.952 22.7484 101.1 22.7841V24.5599C100.952 24.4987 100.624 24.4446 100.262 24.4446C99.062 24.4446 98.32 25.2713 98.32 26.5725V32.0581H96.456V22.8086ZM109.691 29.3424C109.441 31.0212 107.836 32.1735 105.782 32.1735C103.141 32.1735 101.502 30.3711 101.502 27.4788C101.502 24.5773 103.15 22.6953 105.704 22.6953C108.216 22.6953 109.795 24.4538 109.795 27.2573V27.9085H103.382V28.0238C103.382 29.6057 104.358 30.6426 105.825 30.6426C106.86 30.6426 107.672 30.1425 107.922 29.3424H109.691Z" fill="#FFFFFE"/>
<path d="M103.391 26.5817H107.931C107.887 25.1662 106.999 24.2344 105.704 24.2344C104.418 24.2344 103.487 25.1835 103.391 26.5817Z" fill="black"/>
<path d="M37.932 9.82373C39.707 9.82373 40.748 10.9341 40.748 12.8528C40.748 14.8001 39.715 15.9197 37.932 15.9197H35.772V9.82373H37.932Z" fill="#FFFFFE"/>
<path d="M36.7 15.0572H37.829C39.08 15.0572 39.801 14.2632 39.801 12.865C39.801 11.4872 39.068 10.6851 37.829 10.6851H36.7V15.0572Z" fill="black"/>
<path d="M41.798 13.6161C41.798 12.1342 42.61 11.23 43.929 11.23C45.244 11.23 46.057 12.1342 46.057 13.6161C46.057 15.1082 45.247 16.0084 43.929 16.0084C42.606 16.0084 41.798 15.1082 41.798 13.6161Z" fill="#FFFFFE"/>
<path d="M45.14 13.6162C45.14 12.6191 44.7 12.0374 43.929 12.0374C43.154 12.0374 42.719 12.6191 42.719 13.6162C42.719 14.6215 43.154 15.2012 43.929 15.2012C44.7 15.2012 45.14 14.6174 45.14 13.6162Z" fill="black"/>
<path d="M51.718 15.9197H50.793L49.861 12.5314H49.789L48.861 15.9197H47.945L46.7 11.3189H47.604L48.413 14.8297H48.48L49.408 11.3189H50.263L51.191 14.8297H51.261L52.067 11.3189H52.958L51.718 15.9197ZM54.005 11.3189H54.863V12.0497H54.929C55.149 11.5394 55.597 11.2301 56.277 11.2301C57.284 11.2301 57.84 11.8466 57.84 12.9417V15.9197H56.948V13.1692C56.948 12.4293 56.634 12.0619 55.974 12.0619C55.314 12.0619 54.896 12.511 54.896 13.2274V15.9197H54.006L54.005 11.3189ZM59.26 15.9197H60.151V9.52271H59.26V15.9197ZM61.39 13.6163C61.39 12.1344 62.202 11.2301 63.52 11.2301C64.836 11.2301 65.649 12.1344 65.649 13.6163C65.649 15.1084 64.839 16.0085 63.521 16.0085C62.198 16.0085 61.39 15.1084 61.39 13.6163Z" fill="#FFFFFE"/>
<path d="M64.732 13.6162C64.732 12.6191 64.292 12.0374 63.521 12.0374C62.746 12.0374 62.311 12.6191 62.311 13.6162C62.311 14.6215 62.746 15.2012 63.521 15.2012C64.292 15.2012 64.732 14.6174 64.732 13.6162Z" fill="black"/>
<path d="M66.587 14.6173C66.587 13.7906 67.192 13.312 68.267 13.2446L69.49 13.1732V12.7751C69.49 12.2904 69.175 12.0158 68.566 12.0158C68.069 12.0158 67.724 12.2016 67.624 12.5261H66.762C66.853 11.7372 67.582 11.23 68.607 11.23C69.739 11.23 70.377 11.8046 70.377 12.7762V15.9196H69.52V15.2725H69.448C69.18 15.7328 68.686 15.9951 68.093 15.9951C67.223 15.9951 66.587 15.4583 66.587 14.6173Z" fill="#FFFFFE"/>
<path d="M69.49 14.2256V13.8408L68.387 13.9123C67.766 13.9551 67.484 14.1705 67.484 14.5756C67.484 14.99 67.836 15.2309 68.32 15.2309C68.992 15.2309 69.49 14.7961 69.49 14.2256Z" fill="black"/>
<path d="M71.548 13.6162C71.548 12.1629 72.282 11.2423 73.423 11.2423C74.041 11.2423 74.563 11.5424 74.807 12.0486H74.875V9.52368H75.765V15.9207H74.912V15.192H74.841C74.571 15.6951 74.044 15.9952 73.423 15.9952C72.274 15.9952 71.548 15.0736 71.548 13.6162Z" fill="#FFFFFE"/>
<path d="M72.469 13.6163C72.469 14.592 72.92 15.1798 73.675 15.1798C74.426 15.1798 74.891 14.5838 74.891 13.6204C74.891 12.662 74.421 12.0579 73.675 12.0579C72.925 12.0579 72.469 12.6498 72.469 13.6163Z" fill="black"/>
<path d="M79.452 13.6161C79.452 12.1342 80.266 11.23 81.583 11.23C82.898 11.23 83.711 12.1342 83.711 13.6161C83.711 15.1082 82.902 16.0084 81.583 16.0084C80.262 16.0084 79.452 15.1082 79.452 13.6161Z" fill="#FFFFFE"/>
<path d="M82.795 13.6162C82.795 12.6191 82.355 12.0374 81.583 12.0374C80.808 12.0374 80.373 12.6191 80.373 13.6162C80.373 14.6215 80.808 15.2012 81.583 15.2012C82.355 15.2012 82.795 14.6174 82.795 13.6162Z" fill="black"/>
<path d="M84.908 11.3189H85.765V12.0497H85.831C86.051 11.5394 86.499 11.2301 87.179 11.2301C88.187 11.2301 88.742 11.8466 88.742 12.9417V15.9197H87.851V13.1692C87.851 12.4293 87.536 12.0619 86.876 12.0619C86.217 12.0619 85.798 12.511 85.798 13.2274V15.9197H84.908V11.3189ZM93.778 10.1738V11.3393H94.756V12.1048H93.778V14.4695C93.778 14.9522 93.973 15.1635 94.416 15.1635C94.554 15.1635 94.632 15.1533 94.756 15.142V15.8973C94.5959 15.9272 94.4337 15.9433 94.271 15.9452C93.281 15.9452 92.886 15.5891 92.886 14.7022V12.1048H92.169V11.3393H92.886V10.1738H93.778ZM95.974 9.52271H96.857V12.0578H96.927C97.146 11.5424 97.623 11.2342 98.304 11.2342C99.266 11.2342 99.86 11.8558 99.86 12.9488V15.9187H98.967V13.1733C98.967 12.4385 98.631 12.066 98.001 12.066C97.271 12.066 96.864 12.5355 96.864 13.2325V15.9197H95.974V9.52271ZM101.92 13.1948H104.202C104.181 12.4722 103.749 12.0027 103.09 12.0027C102.43 12.0027 101.97 12.4763 101.92 13.1948Z" fill="#FFFFFE"/>
<path d="M105.055 14.6765C104.853 15.5011 104.131 16.0084 103.099 16.0084C101.805 16.0084 101.013 15.1041 101.013 13.6324C101.013 12.1628 101.823 11.23 103.095 11.23C104.351 11.23 105.109 12.1046 105.109 13.5487V13.8651H101.92V13.9162C101.95 14.7224 102.41 15.2347 103.123 15.2347C103.663 15.2347 104.033 15.0357 104.198 14.6765H105.055Z" fill="#FFFFFE"/>
</svg>
