<svg width="612" height="187" viewBox="0 0 612 187" fill="none" xmlns="http://www.w3.org/2000/svg">
<path d="M116.678 44.7278C116.088 45.4078 115.588 45.3178 115.178 44.7478C113.798 42.8278 112.478 40.9278 111.788 38.5778C109.418 30.4978 103.998 25.4678 95.8982 23.3678C86.7882 21.0078 78.3682 22.7678 71.0382 28.5178C63.6282 34.3378 61.1282 42.2378 62.6082 51.4778C62.9482 53.6178 63.2582 55.7678 63.4982 57.9178C63.5782 58.6378 63.4882 59.3978 63.3982 60.1278C63.2982 60.9578 62.8282 61.5378 61.8782 61.8178C61.7582 60.9678 61.6482 60.1378 61.5282 59.3078C61.0682 56.0378 59.2682 53.8778 56.3482 53.5578C54.7982 53.3878 53.1382 53.5578 51.6182 53.9378C45.1282 55.5578 40.0582 61.4078 39.0882 68.1978C37.8182 77.0878 43.3282 85.3078 52.0282 87.4978C58.3882 89.0978 64.6782 84.1478 64.4882 77.6978C64.4182 75.2378 62.9082 73.6678 60.4482 73.8778C57.8982 74.0878 55.3782 74.5978 52.8382 74.9578C52.2682 75.0378 51.6882 75.0878 51.1082 75.1478C51.0482 75.0578 50.9982 74.9678 50.9382 74.8778C51.3182 74.4278 51.6382 73.8778 52.0982 73.5378C62.1082 66.2378 73.3782 61.8778 85.4182 59.3178C88.7382 58.6078 92.0982 58.1478 95.4982 58.1678C95.6082 58.9478 95.4582 59.1478 94.6782 59.2778C87.5382 60.4678 80.8282 62.8278 74.7482 66.7978C72.8682 68.0278 71.1382 69.4878 69.3782 70.8878C69.0182 71.1778 68.4882 71.4978 68.8182 72.1478C69.3082 73.1078 70.0482 73.6178 70.8182 73.4278C71.3382 73.2978 71.8482 73.0878 72.3382 72.8678C74.8582 71.7278 77.3582 70.5378 79.8782 69.4178C80.8282 68.9978 81.8382 68.6978 82.8182 68.3478C82.8682 68.4178 82.9082 68.4878 82.9582 68.5578C82.3482 69.2178 81.7882 69.9578 81.0982 70.5278C78.8582 72.3878 76.5782 74.1978 74.2882 75.9978C73.0882 76.9378 72.6782 78.0478 73.1282 79.5278C73.5082 80.7778 73.7582 82.0678 74.0982 83.4778C74.7582 83.0478 75.4082 82.6878 75.9782 82.2378C82.4382 77.1478 89.8782 75.0178 97.9882 74.6578C103.378 74.4178 108.588 74.9178 113.538 77.1278C118.748 79.4578 121.678 83.6178 122.598 89.1678C123.398 94.0378 122.458 98.5478 119.148 102.378C116.238 105.738 110.988 106.848 107.388 104.868C106.578 104.428 105.888 103.768 105.088 103.168C105.808 102.408 106.428 101.778 107.028 101.128C110.118 97.7378 111.538 93.7578 111.038 89.1878C110.608 85.1878 108.198 82.5078 104.278 81.6778C101.388 81.0578 98.4382 80.9278 95.5482 81.7978C90.5982 83.2878 87.2282 87.9778 87.1782 93.3178C87.1182 99.2178 89.1982 104.268 93.3582 108.408C97.0582 112.088 100.848 115.678 104.678 119.238C108.588 122.868 112.208 126.708 114.858 131.388C119.958 140.358 120.738 149.758 117.748 159.548C116.318 164.238 114.188 168.548 110.838 172.198C102.542 181.218 92.0215 186.423 79.5682 186.368C72.7582 186.338 68.6982 185.468 62.5682 182.368C55.2582 178.671 51.0682 169.238 51.0682 169.238C46.4182 167.728 39.6682 163.248 35.8182 160.308C24.8782 151.938 15.9582 141.848 9.53824 129.608C5.15824 121.248 2.33824 112.388 1.01824 103.038C0.198242 97.2578 -0.161759 91.4578 0.0682408 85.6278C0.728241 69.0378 4.93824 53.5178 14.5182 39.7678C23.7682 26.4978 35.4282 15.9078 50.0482 8.7578C59.4582 4.1478 69.3482 1.2278 79.8282 0.367802C92.5682 -0.672198 105.048 0.427801 117.228 4.5078C145.518 13.9778 167.168 37.0178 174.788 65.8878C176.598 72.7578 177.468 79.7578 177.668 86.8578C177.958 96.8978 176.738 106.718 173.738 116.308C170.328 127.218 164.718 136.908 157.338 145.588C150.678 153.428 143.148 160.278 134.288 165.578C130.688 167.738 126.938 169.588 122.918 170.868C122.538 170.988 122.148 171.058 121.738 171.158C121.198 170.548 121.178 169.868 121.368 169.148C121.888 167.258 123.008 165.878 124.788 165.008C130.028 162.448 134.988 159.418 139.668 155.928C155.278 144.258 165.288 128.858 170.248 110.078C172.358 102.088 173.488 93.9778 173.258 85.7078C172.958 74.8378 170.468 64.4778 165.788 54.6678C157.938 38.1878 146.298 25.0578 130.678 15.5578C121.588 10.0278 111.698 6.71781 101.128 5.48781C88.3982 4.00781 75.7982 4.61781 63.5682 8.62781C44.0082 15.0378 28.2082 26.4878 17.2682 44.1678C11.8982 52.8478 8.52824 62.3178 6.46824 72.2778C5.29824 77.9378 4.62824 83.6578 4.62824 89.4278C4.62824 101.658 7.03824 113.388 12.3182 124.468C17.2382 134.788 24.2582 143.498 32.6382 151.218C37.6356 155.835 43.7105 160.026 49.5682 163.368C49.5682 151.165 53.2966 139.242 67.0982 136.978C74.9682 135.688 81.5282 138.018 86.7082 144.078C90.8182 148.888 91.0082 155.218 87.2682 160.338C83.0158 166.158 76.5682 168.368 71.0682 169.868C76.0682 175.868 86.7395 171.871 90.1682 169.238C93.5182 166.668 95.2382 163.048 95.9082 158.948C97.4382 149.648 94.7582 141.468 88.8982 134.318C84.7382 129.248 80.3082 124.398 75.9782 119.468C72.6782 115.708 69.7282 111.728 68.2382 106.878C66.0182 99.6678 67.0682 92.9578 71.4882 86.8078C72.6382 85.2078 72.6282 85.2078 71.5682 83.5678C71.4482 83.3778 71.3182 83.1878 71.1082 82.8878C70.1982 83.7878 69.3082 84.6478 68.4282 85.5178C66.6582 87.2878 64.6682 88.7578 62.3682 89.7778C57.5882 91.8778 52.7982 91.4978 48.0382 89.7478C40.0382 86.8078 35.2982 80.1378 34.8882 71.4878C34.3882 61.0078 42.3882 52.6878 50.6082 51.0678C51.8882 50.8178 53.2082 50.7278 54.5082 50.6178C55.0882 50.5678 55.3282 50.3578 55.2782 49.7778C55.2182 49.0978 55.2182 48.4178 55.1582 47.7378C54.5782 41.7578 56.7482 36.6678 60.2982 32.0578C65.0082 25.9378 71.3982 22.3278 78.6382 20.1278C85.0882 18.1678 91.6082 18.0378 98.0882 20.1178C102.558 21.5478 106.268 24.1578 109.178 27.8178C110.258 29.1878 111.218 29.6078 112.938 29.0378C116.278 27.9378 119.728 27.2378 123.288 27.4978C128.668 27.8878 133.588 29.5078 137.588 33.2678C142.878 38.2378 145.268 47.4878 139.918 55.4878C135.348 62.3278 128.978 66.2078 120.938 67.5478C117.998 68.0378 117.798 67.8978 117.768 70.9478C117.758 71.5478 117.708 72.1478 117.638 72.7378C117.608 73.0178 117.458 73.5178 117.378 73.5078C117.008 73.4978 116.518 73.4478 116.318 73.2078C115.848 72.6478 115.458 71.9978 115.128 71.3378C113.998 69.0578 113.858 66.6278 114.148 64.1478C114.448 61.5478 114.238 61.1578 111.698 60.6278C108.598 59.9778 105.488 59.4278 102.388 58.7978C101.978 58.7178 101.628 58.3678 101.258 58.1478C101.668 57.9678 102.058 57.6578 102.478 57.6178C106.798 57.1278 111.058 57.6578 115.318 58.3978C118.658 58.9778 122.018 59.4678 125.388 59.8478C128.608 60.2178 131.348 59.0578 133.528 56.6978C135.948 54.0778 137.788 51.0978 138.218 47.4678C138.858 42.1078 136.798 37.8678 132.558 34.6678C129.528 32.3778 125.978 31.3178 122.278 30.7278C119.218 30.2478 116.138 30.2678 113.058 30.4978C112.428 30.5478 112.238 30.8178 112.298 31.3378C112.428 32.4878 112.528 33.6578 112.788 34.7878C113.158 36.3978 113.668 37.9678 114.098 39.5678C114.658 41.4078 115.298 43.2278 116.678 44.7278ZM66.0682 159.368C66.0682 165.868 71.816 163.164 75.6182 161.338C78.4382 159.978 80.7582 158.058 82.1282 155.168C84.8749 149.415 77.557 144.671 72.5082 147.438C67.9382 149.938 66.6382 153.778 66.0682 159.368Z" fill="#065912"/>
<path d="M222.7 98.9C219.767 97.9 217.1 96.9 214.7 95.9C212.3 94.8333 210.233 93.5667 208.5 92.1C206.767 90.6333 205.4 88.9 204.4 86.9C203.467 84.8333 203 82.3333 203 79.4C203 73.7333 205.167 69.2 209.5 65.8C213.9 62.4 220.033 60.7 227.9 60.7C230.767 60.7 233.433 60.9 235.9 61.3C238.367 61.7 240.467 62.3333 242.2 63.2C244 64 245.4 65.0667 246.4 66.4C247.4 67.6667 247.9 69.1667 247.9 70.9C247.9 72.6333 247.5 74.1333 246.7 75.4C245.9 76.6 244.933 77.6333 243.8 78.5C242.333 77.5667 240.367 76.7667 237.9 76.1C235.433 75.3667 232.733 75 229.8 75C226.8 75 224.6 75.4333 223.2 76.3C221.8 77.1 221.1 78.1333 221.1 79.4C221.1 80.4 221.533 81.2333 222.4 81.9C223.267 82.5 224.567 83.0667 226.3 83.6L231.6 85.3C237.867 87.3 242.667 89.8667 246 93C249.4 96.0667 251.1 100.267 251.1 105.6C251.1 111.267 248.867 115.867 244.4 119.4C239.933 122.867 233.367 124.6 224.7 124.6C221.633 124.6 218.767 124.333 216.1 123.8C213.5 123.333 211.2 122.633 209.2 121.7C207.267 120.7 205.733 119.5 204.6 118.1C203.533 116.633 203 114.967 203 113.1C203 111.167 203.567 109.533 204.7 108.2C205.833 106.8 207.067 105.733 208.4 105C210.267 106.467 212.533 107.733 215.2 108.8C217.933 109.867 220.9 110.4 224.1 110.4C227.367 110.4 229.667 109.9 231 108.9C232.333 107.9 233 106.733 233 105.4C233 104.067 232.467 103.067 231.4 102.4C230.333 101.667 228.833 100.967 226.9 100.3L222.7 98.9Z" fill="#065912"/>
<path d="M314.778 122.6C314.045 122.8 312.878 123 311.278 123.2C309.745 123.4 308.211 123.5 306.678 123.5C305.145 123.5 303.778 123.367 302.578 123.1C301.445 122.9 300.478 122.5 299.678 121.9C298.878 121.3 298.278 120.467 297.878 119.4C297.478 118.333 297.278 116.933 297.278 115.2V99.6H278.078V122.6C277.345 122.8 276.178 123 274.578 123.2C273.045 123.4 271.511 123.5 269.978 123.5C268.445 123.5 267.078 123.367 265.878 123.1C264.745 122.9 263.778 122.5 262.978 121.9C262.178 121.3 261.578 120.467 261.178 119.4C260.778 118.333 260.578 116.933 260.578 115.2V62.4C261.311 62.2667 262.478 62.1 264.078 61.9C265.678 61.6333 267.211 61.5 268.678 61.5C270.211 61.5 271.545 61.6333 272.678 61.9C273.878 62.1 274.878 62.5 275.678 63.1C276.478 63.7 277.078 64.5333 277.478 65.6C277.878 66.6667 278.078 68.0667 278.078 69.8V85.8H297.278V62.4C298.011 62.2667 299.178 62.1 300.778 61.9C302.378 61.6333 303.911 61.5 305.378 61.5C306.911 61.5 308.245 61.6333 309.378 61.9C310.578 62.1 311.578 62.5 312.378 63.1C313.178 63.7 313.778 64.5333 314.178 65.6C314.578 66.6667 314.778 68.0667 314.778 69.8V122.6Z" fill="#065912"/>
<path d="M345.166 103.4V122.6C344.432 122.8 343.266 123 341.666 123.2C340.132 123.4 338.599 123.5 337.066 123.5C335.532 123.5 334.166 123.367 332.966 123.1C331.832 122.9 330.866 122.5 330.066 121.9C329.332 121.3 328.766 120.467 328.366 119.4C327.966 118.333 327.766 116.933 327.766 115.2V68.1C327.766 66.7 328.132 65.6333 328.866 64.9C329.666 64.1 330.732 63.4667 332.066 63C334.332 62.2 336.966 61.6333 339.966 61.3C342.966 60.9 346.166 60.7 349.566 60.7C358.766 60.7 365.699 62.6333 370.366 66.5C375.032 70.3667 377.366 75.6 377.366 82.2C377.366 86.3333 376.299 89.8667 374.166 92.8C372.032 95.7333 369.499 98 366.566 99.6C368.966 102.867 371.332 105.933 373.666 108.8C375.999 111.667 377.832 114.267 379.166 116.6C378.499 118.933 377.266 120.733 375.466 122C373.732 123.2 371.766 123.8 369.566 123.8C368.099 123.8 366.832 123.633 365.766 123.3C364.699 122.967 363.766 122.5 362.966 121.9C362.166 121.3 361.432 120.567 360.766 119.7C360.099 118.833 359.466 117.9 358.866 116.9L350.466 103.4H345.166ZM351.466 90.1C353.999 90.1 355.999 89.4667 357.466 88.2C358.932 86.8667 359.666 84.9333 359.666 82.4C359.666 79.8667 358.832 77.9667 357.166 76.7C355.566 75.3667 352.999 74.7 349.466 74.7C348.466 74.7 347.666 74.7333 347.066 74.8C346.466 74.8667 345.799 74.9667 345.066 75.1V90.1H351.466Z" fill="#065912"/>
<path d="M406.203 122.6C405.47 122.8 404.303 123 402.703 123.2C401.17 123.4 399.636 123.5 398.103 123.5C396.57 123.5 395.203 123.367 394.003 123.1C392.87 122.9 391.903 122.5 391.103 121.9C390.303 121.3 389.703 120.467 389.303 119.4C388.903 118.333 388.703 116.933 388.703 115.2V62.4C389.436 62.2667 390.603 62.1 392.203 61.9C393.803 61.6333 395.336 61.5 396.803 61.5C398.336 61.5 399.67 61.6333 400.803 61.9C402.003 62.1 403.003 62.5 403.803 63.1C404.603 63.7 405.203 64.5333 405.603 65.6C406.003 66.6667 406.203 68.0667 406.203 69.8V122.6Z" fill="#065912"/>
<path d="M475.491 121C474.558 121.8 473.091 122.5 471.091 123.1C469.158 123.7 467.025 124 464.691 124C461.891 124 459.491 123.6 457.491 122.8C455.491 121.933 454.125 120.767 453.391 119.3C452.658 117.767 451.758 115.8 450.691 113.4C449.625 110.933 448.491 108.2 447.291 105.2C446.158 102.2 444.958 99.0333 443.691 95.7C442.491 92.3 441.325 88.8667 440.191 85.4C439.058 81.9333 437.991 78.5333 436.991 75.2C435.991 71.8667 435.125 68.7333 434.391 65.8C435.325 64.8667 436.658 64.0333 438.391 63.3C440.191 62.5 442.091 62.1 444.091 62.1C446.558 62.1 448.558 62.6333 450.091 63.7C451.691 64.7 452.858 66.6 453.591 69.4C455.391 75.9333 457.191 82.2 458.991 88.2C460.858 94.1333 462.791 100.333 464.791 106.8H465.391C467.191 100.533 469.025 93.7 470.891 86.3C472.825 78.9 474.658 71.5333 476.391 64.2C477.591 63.6 478.858 63.1 480.191 62.7C481.591 62.3 483.158 62.1 484.891 62.1C487.358 62.1 489.458 62.6667 491.191 63.8C492.925 64.8667 493.791 66.6667 493.791 69.2C493.791 70.6667 493.425 72.8 492.691 75.6C492.025 78.4 491.125 81.5667 489.991 85.1C488.925 88.5667 487.691 92.2 486.291 96C484.958 99.8 483.591 103.4 482.191 106.8C480.858 110.133 479.591 113.1 478.391 115.7C477.191 118.233 476.225 120 475.491 121Z" fill="#065912"/>
<path d="M502.57 71.7C502.57 68.8333 503.404 66.5667 505.07 64.9C506.737 63.2333 509.004 62.4 511.87 62.4H544.87C545.337 63.1333 545.737 64.1 546.07 65.3C546.47 66.5 546.67 67.7667 546.67 69.1C546.67 71.6333 546.104 73.4333 544.97 74.5C543.904 75.5667 542.47 76.1 540.67 76.1H519.57V85.4H542.07C542.537 86.1333 542.937 87.1 543.27 88.3C543.67 89.4333 543.87 90.6667 543.87 92C543.87 94.5333 543.337 96.3333 542.27 97.4C541.204 98.4667 539.77 99 537.97 99H519.57V109.5H545.27C545.737 110.233 546.137 111.2 546.47 112.4C546.87 113.6 547.07 114.867 547.07 116.2C547.07 118.733 546.504 120.567 545.37 121.7C544.304 122.767 542.87 123.3 541.07 123.3H511.87C509.004 123.3 506.737 122.467 505.07 120.8C503.404 119.133 502.57 116.867 502.57 114V71.7Z" fill="#065912"/>
<path d="M611.67 113.1C611.67 115.167 611.303 116.7 610.57 117.7C609.836 118.7 608.67 119.667 607.07 120.6C606.136 121.133 604.97 121.667 603.57 122.2C602.17 122.667 600.636 123.067 598.97 123.4C597.303 123.8 595.536 124.1 593.67 124.3C591.87 124.5 590.07 124.6 588.27 124.6C583.47 124.6 578.97 123.967 574.77 122.7C570.57 121.367 566.903 119.4 563.77 116.8C560.703 114.133 558.27 110.833 556.47 106.9C554.67 102.967 553.77 98.4 553.77 93.2C553.77 87.7333 554.736 82.9667 556.67 78.9C558.67 74.8333 561.27 71.4667 564.47 68.8C567.736 66.0667 571.436 64.0333 575.57 62.7C579.77 61.3667 584.07 60.7 588.47 60.7C594.803 60.7 599.803 61.7333 603.47 63.8C607.203 65.8 609.07 68.4333 609.07 71.7C609.07 73.4333 608.636 74.9333 607.77 76.2C606.903 77.4667 605.903 78.4667 604.77 79.2C603.103 78.2 601.003 77.2333 598.47 76.3C596.003 75.3 593.203 74.8 590.07 74.8C584.47 74.8 580.003 76.4 576.67 79.6C573.403 82.8 571.77 87.2333 571.77 92.9C571.77 95.9667 572.203 98.6333 573.07 100.9C574.003 103.1 575.236 104.933 576.77 106.4C578.303 107.8 580.07 108.867 582.07 109.6C584.07 110.267 586.203 110.6 588.47 110.6C589.936 110.6 591.236 110.467 592.37 110.2C593.503 109.933 594.37 109.633 594.97 109.3V99.9H584.27C583.87 99.1667 583.47 98.2 583.07 97C582.736 95.8 582.57 94.5333 582.57 93.2C582.57 90.8 583.103 89.0667 584.17 88C585.303 86.9333 586.736 86.4 588.47 86.4H605.37C607.37 86.4 608.903 86.9667 609.97 88.1C611.103 89.1667 611.67 90.7 611.67 92.7V113.1Z" fill="#065912"/>
</svg>
