<svg width="178" height="187" viewBox="0 0 178 187" fill="none" xmlns="http://www.w3.org/2000/svg">
<path d="M116.678 44.7278C116.088 45.4078 115.588 45.3178 115.178 44.7478C113.798 42.8278 112.478 40.9278 111.788 38.5778C109.418 30.4978 103.998 25.4678 95.8982 23.3678C86.7882 21.0078 78.3682 22.7678 71.0382 28.5178C63.6282 34.3378 61.1282 42.2378 62.6082 51.4778C62.9482 53.6178 63.2582 55.7678 63.4982 57.9178C63.5782 58.6378 63.4882 59.3978 63.3982 60.1278C63.2982 60.9578 62.8282 61.5378 61.8782 61.8178C61.7582 60.9678 61.6482 60.1378 61.5282 59.3078C61.0682 56.0378 59.2682 53.8778 56.3482 53.5578C54.7982 53.3878 53.1382 53.5578 51.6182 53.9378C45.1282 55.5578 40.0582 61.4078 39.0882 68.1978C37.8182 77.0878 43.3282 85.3078 52.0282 87.4978C58.3882 89.0978 64.6782 84.1478 64.4882 77.6978C64.4182 75.2378 62.9082 73.6678 60.4482 73.8778C57.8982 74.0878 55.3782 74.5978 52.8382 74.9578C52.2682 75.0378 51.6882 75.0878 51.1082 75.1478C51.0482 75.0578 50.9982 74.9678 50.9382 74.8778C51.3182 74.4278 51.6382 73.8778 52.0982 73.5378C62.1082 66.2378 73.3782 61.8778 85.4182 59.3178C88.7382 58.6078 92.0982 58.1478 95.4982 58.1678C95.6082 58.9478 95.4582 59.1478 94.6782 59.2778C87.5382 60.4678 80.8282 62.8278 74.7482 66.7978C72.8682 68.0278 71.1382 69.4878 69.3782 70.8878C69.0182 71.1778 68.4882 71.4978 68.8182 72.1478C69.3082 73.1078 70.0482 73.6178 70.8182 73.4278C71.3382 73.2978 71.8482 73.0878 72.3382 72.8678C74.8582 71.7278 77.3582 70.5378 79.8782 69.4178C80.8282 68.9978 81.8382 68.6978 82.8182 68.3478C82.8682 68.4178 82.9082 68.4878 82.9582 68.5578C82.3482 69.2178 81.7882 69.9578 81.0982 70.5278C78.8582 72.3878 76.5782 74.1978 74.2882 75.9978C73.0882 76.9378 72.6782 78.0478 73.1282 79.5278C73.5082 80.7778 73.7582 82.0678 74.0982 83.4778C74.7582 83.0478 75.4082 82.6878 75.9782 82.2378C82.4382 77.1478 89.8782 75.0178 97.9882 74.6578C103.378 74.4178 108.588 74.9178 113.538 77.1278C118.748 79.4578 121.678 83.6178 122.598 89.1678C123.398 94.0378 122.458 98.5478 119.148 102.378C116.238 105.738 110.988 106.848 107.388 104.868C106.578 104.428 105.888 103.768 105.088 103.168C105.808 102.408 106.428 101.778 107.028 101.128C110.118 97.7378 111.538 93.7578 111.038 89.1878C110.608 85.1878 108.198 82.5078 104.278 81.6778C101.388 81.0578 98.4382 80.9278 95.5482 81.7978C90.5982 83.2878 87.2282 87.9778 87.1782 93.3178C87.1182 99.2178 89.1982 104.268 93.3582 108.408C97.0582 112.088 100.848 115.678 104.678 119.238C108.588 122.868 112.208 126.708 114.858 131.388C119.958 140.358 120.738 149.758 117.748 159.548C116.318 164.238 114.188 168.548 110.838 172.198C102.542 181.218 92.0215 186.423 79.5682 186.368C72.7582 186.338 68.6982 185.468 62.5682 182.368C55.2582 178.671 51.0682 169.238 51.0682 169.238C46.4182 167.728 39.6682 163.248 35.8182 160.308C24.8782 151.938 15.9582 141.848 9.53824 129.608C5.15824 121.248 2.33824 112.388 1.01824 103.038C0.198242 97.2578 -0.161759 91.4578 0.0682408 85.6278C0.728241 69.0378 4.93824 53.5178 14.5182 39.7678C23.7682 26.4978 35.4282 15.9078 50.0482 8.7578C59.4582 4.1478 69.3482 1.2278 79.8282 0.367802C92.5682 -0.672198 105.048 0.427801 117.228 4.5078C145.518 13.9778 167.168 37.0178 174.788 65.8878C176.598 72.7578 177.468 79.7578 177.668 86.8578C177.958 96.8978 176.738 106.718 173.738 116.308C170.328 127.218 164.718 136.908 157.338 145.588C150.678 153.428 143.148 160.278 134.288 165.578C130.688 167.738 126.938 169.588 122.918 170.868C122.538 170.988 122.148 171.058 121.738 171.158C121.198 170.548 121.178 169.868 121.368 169.148C121.888 167.258 123.008 165.878 124.788 165.008C130.028 162.448 134.988 159.418 139.668 155.928C155.278 144.258 165.288 128.858 170.248 110.078C172.358 102.088 173.488 93.9778 173.258 85.7078C172.958 74.8378 170.468 64.4778 165.788 54.6678C157.938 38.1878 146.298 25.0578 130.678 15.5578C121.588 10.0278 111.698 6.71781 101.128 5.48781C88.3982 4.00781 75.7982 4.61781 63.5682 8.62781C44.0082 15.0378 28.2082 26.4878 17.2682 44.1678C11.8982 52.8478 8.52824 62.3178 6.46824 72.2778C5.29824 77.9378 4.62824 83.6578 4.62824 89.4278C4.62824 101.658 7.03824 113.388 12.3182 124.468C17.2382 134.788 24.2582 143.498 32.6382 151.218C37.6356 155.835 43.7105 160.026 49.5682 163.368C49.5682 151.165 53.2966 139.242 67.0982 136.978C74.9682 135.688 81.5282 138.018 86.7082 144.078C90.8182 148.888 91.0082 155.218 87.2682 160.338C83.0158 166.158 76.5682 168.368 71.0682 169.868C76.0682 175.868 86.7395 171.871 90.1682 169.238C93.5182 166.668 95.2382 163.048 95.9082 158.948C97.4382 149.648 94.7582 141.468 88.8982 134.318C84.7382 129.248 80.3082 124.398 75.9782 119.468C72.6782 115.708 69.7282 111.728 68.2382 106.878C66.0182 99.6678 67.0682 92.9578 71.4882 86.8078C72.6382 85.2078 72.6282 85.2078 71.5682 83.5678C71.4482 83.3778 71.3182 83.1878 71.1082 82.8878C70.1982 83.7878 69.3082 84.6478 68.4282 85.5178C66.6582 87.2878 64.6682 88.7578 62.3682 89.7778C57.5882 91.8778 52.7982 91.4978 48.0382 89.7478C40.0382 86.8078 35.2982 80.1378 34.8882 71.4878C34.3882 61.0078 42.3882 52.6878 50.6082 51.0678C51.8882 50.8178 53.2082 50.7278 54.5082 50.6178C55.0882 50.5678 55.3282 50.3578 55.2782 49.7778C55.2182 49.0978 55.2182 48.4178 55.1582 47.7378C54.5782 41.7578 56.7482 36.6678 60.2982 32.0578C65.0082 25.9378 71.3982 22.3278 78.6382 20.1278C85.0882 18.1678 91.6082 18.0378 98.0882 20.1178C102.558 21.5478 106.268 24.1578 109.178 27.8178C110.258 29.1878 111.218 29.6078 112.938 29.0378C116.278 27.9378 119.728 27.2378 123.288 27.4978C128.668 27.8878 133.588 29.5078 137.588 33.2678C142.878 38.2378 145.268 47.4878 139.918 55.4878C135.348 62.3278 128.978 66.2078 120.938 67.5478C117.998 68.0378 117.798 67.8978 117.768 70.9478C117.758 71.5478 117.708 72.1478 117.638 72.7378C117.608 73.0178 117.458 73.5178 117.378 73.5078C117.008 73.4978 116.518 73.4478 116.318 73.2078C115.848 72.6478 115.458 71.9978 115.128 71.3378C113.998 69.0578 113.858 66.6278 114.148 64.1478C114.448 61.5478 114.238 61.1578 111.698 60.6278C108.598 59.9778 105.488 59.4278 102.388 58.7978C101.978 58.7178 101.628 58.3678 101.258 58.1478C101.668 57.9678 102.058 57.6578 102.478 57.6178C106.798 57.1278 111.058 57.6578 115.318 58.3978C118.658 58.9778 122.018 59.4678 125.388 59.8478C128.608 60.2178 131.348 59.0578 133.528 56.6978C135.948 54.0778 137.788 51.0978 138.218 47.4678C138.858 42.1078 136.798 37.8678 132.558 34.6678C129.528 32.3778 125.978 31.3178 122.278 30.7278C119.218 30.2478 116.138 30.2678 113.058 30.4978C112.428 30.5478 112.238 30.8178 112.298 31.3378C112.428 32.4878 112.528 33.6578 112.788 34.7878C113.158 36.3978 113.668 37.9678 114.098 39.5678C114.658 41.4078 115.298 43.2278 116.678 44.7278ZM66.0682 159.368C66.0682 165.868 71.816 163.164 75.6182 161.338C78.4382 159.978 80.7582 158.058 82.1282 155.168C84.8749 149.415 77.557 144.671 72.5082 147.438C67.9382 149.938 66.6382 153.778 66.0682 159.368Z" fill="#065912"/>
</svg>
