<svg width="135" height="42" viewBox="0 0 135 42" fill="none" xmlns="http://www.w3.org/2000/svg">
<path d="M130 0.903809H5C2.25 0.903809 0 3.20012 0 6.00672V36.6242C0 39.4308 2.25 41.7271 5 41.7271H130C132.75 41.7271 135 39.4308 135 36.6242V6.00672C135 3.20012 132.75 0.903809 130 0.903809Z" fill="#A6A6A6"/>
<path d="M130 1.72021C131.114 1.72021 132.182 2.17182 132.97 2.97569C133.757 3.77955 134.2 4.86983 134.2 6.00666V36.6242C134.2 37.761 133.757 38.8513 132.97 39.6551C132.182 40.459 131.114 40.9106 130 40.9106H4.99999C3.88608 40.9106 2.81779 40.459 2.03014 39.6551C1.24249 38.8513 0.799988 37.761 0.799988 36.6242V6.00666C0.799988 4.86983 1.24249 3.77955 2.03014 2.97569C2.81779 2.17182 3.88608 1.72021 4.99999 1.72021H130Z" fill="black"/>
<path d="M47.42 11.3546C47.42 12.2119 47.17 12.8957 46.67 13.3958C46.11 13.998 45.37 14.3041 44.47 14.3041C43.6 14.3041 42.87 13.998 42.26 13.3856C41.65 12.7733 41.35 12.0078 41.35 11.1097C41.35 10.2014 41.65 9.44616 42.26 8.83381C42.87 8.22146 43.6 7.91528 44.47 7.91528C44.9 7.91528 45.31 7.99693 45.7 8.17043C46.09 8.34393 46.4 8.56846 46.64 8.85422L46.11 9.39513C45.71 8.91545 45.17 8.67052 44.47 8.67052C43.84 8.67052 43.29 8.89504 42.83 9.35431C42.37 9.80336 42.14 10.3953 42.14 11.1199C42.14 11.8445 42.37 12.4365 42.83 12.8855C43.29 13.3346 43.84 13.5693 44.47 13.5693C45.14 13.5693 45.7 13.3448 46.15 12.8855C46.44 12.5896 46.61 12.1711 46.65 11.6404H44.47V10.9056H47.38C47.4 11.0485 47.42 11.2016 47.42 11.3546ZM52.03 8.79298H49.3V10.7321H51.76V11.4669H49.3V13.406H52.03V14.1613H48.53V8.03775H52.03V8.79298ZM55.28 14.1715H54.51V8.80319H52.83V8.04796H56.95V8.80319H55.27V14.1715H55.28ZM59.94 14.1715V8.04796H60.71V14.1715H59.94ZM64.13 14.1715H63.36V8.80319H61.68V8.04796H65.8V8.80319H64.12V14.1715H64.13ZM73.61 13.3754C73.02 13.998 72.29 14.3041 71.41 14.3041C70.53 14.3041 69.8 13.998 69.21 13.3754C68.62 12.7528 68.33 11.9976 68.33 11.1097C68.33 10.2116 68.62 9.45636 69.21 8.84401C69.8 8.22146 70.53 7.91528 71.41 7.91528C72.28 7.91528 73.01 8.22146 73.61 8.84401C74.2 9.46657 74.5 10.2218 74.5 11.1097C74.49 11.9976 74.2 12.7528 73.61 13.3754Z" fill="white" stroke="white" stroke-width="0.2"/>
<path d="M69.78 12.865C70.22 13.3243 70.77 13.5488 71.41 13.5488C72.05 13.5488 72.6 13.3243 73.04 12.865C73.48 12.4057 73.71 11.824 73.71 11.1096C73.71 10.3952 73.49 9.81346 73.04 9.3542C72.6 8.89494 72.05 8.67041 71.41 8.67041C70.77 8.67041 70.22 8.89494 69.78 9.3542C69.34 9.81346 69.11 10.3952 69.11 11.1096C69.11 11.824 69.33 12.4057 69.78 12.865Z" fill="black" stroke="white" stroke-width="0.2"/>
<path d="M75.57 14.1714V8.04785H76.51L79.43 12.814H79.46L79.43 11.6301V8.04785H80.2V14.1714H79.4L76.35 9.1807H76.31L76.34 10.3646V14.1816H75.57V14.1714Z" fill="white" stroke="white" stroke-width="0.2"/>
<path d="M68.13 23.1016C65.78 23.1016 63.86 24.9284 63.86 27.439C63.86 29.9395 65.78 31.7765 68.13 31.7765C70.48 31.7765 72.4 29.9395 72.4 27.439C72.4 24.9284 70.49 23.1016 68.13 23.1016Z" fill="white"/>
<path d="M68.13 30.0721C66.84 30.0721 65.73 28.9903 65.73 27.439C65.73 25.8775 66.84 24.8059 68.13 24.8059C69.42 24.8059 70.53 25.8775 70.53 27.439C70.53 28.9903 69.42 30.0721 68.13 30.0721Z" fill="black"/>
<path d="M58.82 23.1016C56.47 23.1016 54.55 24.9284 54.55 27.439C54.55 29.9395 56.47 31.7765 58.82 31.7765C61.17 31.7765 63.09 29.9395 63.09 27.439C63.09 24.9284 61.17 23.1016 58.82 23.1016Z" fill="white"/>
<path d="M58.82 30.0721C57.53 30.0721 56.42 28.9903 56.42 27.439C56.42 25.8775 57.53 24.8059 58.82 24.8059C60.11 24.8059 61.22 25.8775 61.22 27.439C61.22 28.9903 60.11 30.0721 58.82 30.0721Z" fill="black"/>
<path d="M47.74 24.4281V26.2652H52.06C51.93 27.296 51.59 28.0614 51.08 28.5819C50.45 29.2249 49.47 29.9291 47.75 29.9291C45.09 29.9291 43.01 27.745 43.01 25.0303C43.01 22.3155 45.09 20.1315 47.75 20.1315C49.18 20.1315 50.23 20.703 51 21.448L52.27 20.1519C51.19 19.1007 49.76 18.2944 47.74 18.2944C44.1 18.2944 41.04 21.3154 41.04 25.0405C41.04 28.7554 44.1 31.7865 47.74 31.7865C49.71 31.7865 51.19 31.1334 52.35 29.8985C53.54 28.684 53.91 26.9694 53.91 25.5916C53.91 25.163 53.88 24.7649 53.81 24.4383H47.74V24.4281ZM93.05 25.857C92.7 24.8874 91.62 23.0912 89.41 23.0912C87.22 23.0912 85.4 24.8466 85.4 27.4287C85.4 29.8576 87.2 31.7661 89.62 31.7661C91.57 31.7661 92.7 30.5516 93.16 29.8474L91.71 28.8575C91.23 29.5821 90.57 30.0618 89.62 30.0618C88.67 30.0618 87.99 29.6127 87.56 28.7452L93.25 26.3468L93.05 25.857Z" fill="white"/>
<path d="M87.25 27.3062C87.2 25.6324 88.52 24.7751 89.47 24.7751C90.21 24.7751 90.84 25.1528 91.05 25.6937L87.25 27.3062Z" fill="black"/>
<path d="M82.63 31.5212H84.5V18.7639H82.63V31.5212ZM79.57 24.0709H79.51C79.09 23.5607 78.29 23.1014 77.27 23.1014C75.14 23.1014 73.19 25.0099 73.19 27.4593C73.19 29.8883 75.14 31.7866 77.27 31.7866C78.28 31.7866 79.09 31.3273 79.51 30.7966H79.57V31.4191C79.57 33.0827 78.7 33.9706 77.3 33.9706C76.16 33.9706 75.45 33.1337 75.16 32.4295L73.53 33.1235C74 34.2768 75.24 35.6852 77.3 35.6852C79.49 35.6852 81.34 34.3686 81.34 31.164V23.3667H79.57V24.0709Z" fill="white"/>
<path d="M77.42 30.0722C76.13 30.0722 75.05 28.9699 75.05 27.4595C75.05 25.9286 76.13 24.8162 77.42 24.8162C78.69 24.8162 79.69 25.9388 79.69 27.4595C79.69 28.9699 78.7 30.0722 77.42 30.0722Z" fill="black"/>
<path d="M101.8 18.7539H97.33V31.5112H99.2V26.6736H101.81C103.88 26.6736 105.91 25.1428 105.91 22.7138C105.91 20.2848 103.87 18.7539 101.8 18.7539Z" fill="white"/>
<path d="M101.85 24.9078H99.2V20.5295H101.85C103.25 20.5295 104.04 21.7134 104.04 22.7136C104.04 23.7138 103.25 24.9078 101.85 24.9078Z" fill="black"/>
<path d="M113.38 23.0708C112.03 23.0708 110.63 23.6832 110.05 25.0201L111.71 25.7243C112.06 25.0201 112.72 24.7854 113.41 24.7854C114.38 24.7854 115.36 25.3773 115.37 26.4285V26.5612C115.03 26.3673 114.31 26.0713 113.42 26.0713C111.63 26.0713 109.82 27.0715 109.82 28.9392C109.82 30.6435 111.28 31.7458 112.92 31.7458C114.17 31.7458 114.87 31.1742 115.3 30.5006H115.36V31.4906H117.16V26.602C117.18 24.3363 115.52 23.0708 113.38 23.0708Z" fill="white"/>
<path d="M113.16 30.072C112.55 30.072 111.7 29.7556 111.7 28.9902C111.7 28.0104 112.76 27.6328 113.68 27.6328C114.5 27.6328 114.89 27.8165 115.38 28.0615C115.309 28.6132 115.046 29.1204 114.638 29.4898C114.23 29.8592 113.705 30.0659 113.16 30.072Z" fill="black"/>
<path d="M123.74 23.3565L121.6 28.8881H121.54L119.32 23.3565H117.31L120.64 31.0926L118.74 35.3892H120.69L125.82 23.3565H123.74ZM106.93 31.5212H108.8V18.7639H106.93V31.5212Z" fill="white"/>
<path d="M10.43 8.58877C10.14 8.90516 9.97 9.39504 9.97 10.0176V32.5929C9.97 33.2257 10.14 33.7155 10.43 34.0217L10.5 34.0931L22.89 21.4481V21.1419L10.51 8.51733L10.43 8.58877Z" fill="url(#paint0_linear_32_35)"/>
<path d="M27.03 25.6734L22.9 21.4584V21.1523L27.03 16.9373L27.12 16.9883L32.01 19.8255C33.41 20.6318 33.41 21.9585 32.01 22.775L27.12 25.6122L27.03 25.6734Z" fill="url(#paint1_linear_32_35)"/>
<path d="M27.12 25.6223L22.9 21.3154L10.43 34.0319C10.89 34.532 11.65 34.5932 12.51 34.0931L27.12 25.6223Z" fill="url(#paint2_linear_32_35)"/>
<path d="M27.12 16.9983L12.51 8.52749C11.65 8.0274 10.89 8.08864 10.43 8.58873L22.89 21.3052L27.12 16.9983Z" fill="url(#paint3_linear_32_35)"/>
<defs>
<linearGradient id="paint0_linear_32_35" x1="798.646" y1="135.629" x2="-285.147" y2="1197.59" gradientUnits="userSpaceOnUse">
<stop stop-color="#00A0FF"/>
<stop offset="0.00657" stop-color="#00A1FF"/>
<stop offset="0.2601" stop-color="#00BEFF"/>
<stop offset="0.5122" stop-color="#00D2FF"/>
<stop offset="0.7604" stop-color="#00DFFF"/>
<stop offset="1" stop-color="#00E3FF"/>
</linearGradient>
<linearGradient id="paint1_linear_32_35" x1="1116.16" y1="454.489" x2="-1303.53" y2="454.489" gradientUnits="userSpaceOnUse">
<stop stop-color="#FFE000"/>
<stop offset="0.4087" stop-color="#FFBD00"/>
<stop offset="0.7754" stop-color="#FFA500"/>
<stop offset="1" stop-color="#FF9C00"/>
</linearGradient>
<linearGradient id="paint2_linear_32_35" x1="1449.94" y1="426.846" x2="-400.365" y2="2239.84" gradientUnits="userSpaceOnUse">
<stop stop-color="#FF3A44"/>
<stop offset="1" stop-color="#C31162"/>
</linearGradient>
<linearGradient id="paint3_linear_32_35" x1="-303.025" y1="-146.742" x2="523.238" y2="662.845" gradientUnits="userSpaceOnUse">
<stop stop-color="#32A071"/>
<stop offset="0.0685" stop-color="#2DA771"/>
<stop offset="0.4762" stop-color="#15CF74"/>
<stop offset="0.8009" stop-color="#06E775"/>
<stop offset="1" stop-color="#00F076"/>
</linearGradient>
</defs>
</svg>
